<svg width="30" height="30" viewBox="0 0 30 30" fill="none" xmlns="http://www.w3.org/2000/svg">
<path d="M17.5 13.75H26.25V7.5H17.5V13.75ZM21.875 12.1875L18.75 10V8.75L21.875 10.9375L25 8.75V10L21.875 12.1875ZM2.5 26.25C1.8125 26.25 1.22417 26.0054 0.735 25.5163C0.245 25.0263 0 24.4375 0 23.75V6.25C0 5.5625 0.245 4.97375 0.735 4.48375C1.22417 3.99458 1.8125 3.75 2.5 3.75H27.5C28.1875 3.75 28.7763 3.99458 29.2663 4.48375C29.7554 4.97375 30 5.5625 30 6.25V23.75C30 24.4375 29.7554 25.0263 29.2663 25.5163C28.7763 26.0054 28.1875 26.25 27.5 26.25H2.5ZM11.25 17.5C12.2917 17.5 13.1771 17.1354 13.9062 16.4062C14.6354 15.6771 15 14.7917 15 13.75C15 12.7083 14.6354 11.8229 13.9062 11.0938C13.1771 10.3646 12.2917 10 11.25 10C10.2083 10 9.32292 10.3646 8.59375 11.0938C7.86458 11.8229 7.5 12.7083 7.5 13.75C7.5 14.7917 7.86458 15.6771 8.59375 16.4062C9.32292 17.1354 10.2083 17.5 11.25 17.5ZM2.625 23.75H19.875C19 22.1875 17.7917 20.9633 16.25 20.0775C14.7083 19.1925 13.0417 18.75 11.25 18.75C9.45833 18.75 7.79167 19.1925 6.25 20.0775C4.70833 20.9633 3.5 22.1875 2.625 23.75Z" fill="black"/>
</svg>
