<svg width="63" height="70" viewBox="0 0 63 70" fill="none" xmlns="http://www.w3.org/2000/svg">
<path d="M46.6667 49.5833V40.8333H26.25V29.1666H46.6667V20.4166L61.25 35L46.6667 49.5833ZM40.8333 5.83331C42.3804 5.83331 43.8642 6.44789 44.9581 7.54186C46.0521 8.63582 46.6667 10.1195 46.6667 11.6666V17.5H40.8333V11.6666H14.5833V58.3333H40.8333V52.5H46.6667V58.3333C46.6667 59.8804 46.0521 61.3641 44.9581 62.4581C43.8642 63.5521 42.3804 64.1666 40.8333 64.1666H14.5833C13.0362 64.1666 11.5525 63.5521 10.4585 62.4581C9.36458 61.3641 8.75 59.8804 8.75 58.3333V11.6666C8.75 10.1195 9.36458 8.63582 10.4585 7.54186C11.5525 6.44789 13.0362 5.83331 14.5833 5.83331H40.8333Z" fill="black"/>
</svg>
