<svg width="20" height="11" viewBox="0 0 20 11" fill="none" xmlns="http://www.w3.org/2000/svg">
<path d="M2 11C1.45 11 0.979333 10.8655 0.588 10.5964C0.196 10.3269 0 10.0031 0 9.625V1.375C0 0.996875 0.196 0.673292 0.588 0.40425C0.979333 0.13475 1.45 0 2 0H18C18.55 0 19.021 0.13475 19.413 0.40425C19.8043 0.673292 20 0.996875 20 1.375V9.625C20 10.0031 19.8043 10.3269 19.413 10.5964C19.021 10.8655 18.55 11 18 11H2ZM10 6.06719C10.0833 6.06719 10.1707 6.05848 10.262 6.04106C10.354 6.0241 10.4417 5.99844 10.525 5.96406L17.6 2.92188C17.7333 2.86458 17.8333 2.79308 17.9 2.70738C17.9667 2.62121 18 2.52656 18 2.42344C18 2.19427 17.8583 2.0224 17.575 1.90781C17.2917 1.79323 17 1.79896 16.7 1.925L10 4.8125L3.3 1.925C3 1.79896 2.70833 1.79598 2.425 1.91606C2.14167 2.0366 2 2.20573 2 2.42344C2 2.53802 2.03333 2.63817 2.1 2.72388C2.16667 2.81004 2.26667 2.87604 2.4 2.92188L9.475 5.96406C9.55833 5.99844 9.646 6.0241 9.738 6.04106C9.82933 6.05848 9.91667 6.06719 10 6.06719Z" fill="black"/>
</svg>
