<svg width="30" height="30" viewBox="0 0 30 30" fill="none" xmlns="http://www.w3.org/2000/svg">
<path d="M3.75 25C3.0625 25 2.47417 24.7554 1.985 24.2663C1.495 23.7763 1.25 23.1875 1.25 22.5V7.5C1.25 6.8125 1.495 6.22417 1.985 5.735C2.47417 5.245 3.0625 5 3.75 5H26.25C26.9375 5 27.5263 5.245 28.0163 5.735C28.5054 6.22417 28.75 6.8125 28.75 7.5V22.5C28.75 23.1875 28.5054 23.7763 28.0163 24.2663C27.5263 24.7554 26.9375 25 26.25 25H3.75ZM4.375 18.75H5.9375V14.375L9.125 18.75H10.625V11.25H9.0625V15.625L5.9375 11.25H4.375V18.75ZM11.875 18.75H16.875V17.1875H13.75V15.8125H16.875V14.25H13.75V12.8125H16.875V11.25H11.875V18.75ZM19.375 18.75H24.375C24.7292 18.75 25.0258 18.63 25.265 18.39C25.505 18.1508 25.625 17.8542 25.625 17.5V11.25H24.0625V16.875H22.6875V12.5H21.125V16.875H19.6875V11.25H18.125V17.5C18.125 17.8542 18.245 18.1508 18.485 18.39C18.7242 18.63 19.0208 18.75 19.375 18.75Z" fill="black"/>
</svg>
